[img]http://img689.imageshack.us/img689/17/blankhu.png[/img]



General Information :
[img]http://img39.imageshack.us/img39/4286/mxmg.jpg[/img]


Screens :
[img]http://img703.imageshack.us/img703/6648/screenshot2011041706h12.png[/img]

[img]http://img130.imageshack.us/img130/3716/screenshot2011041706h00.png[/img]

[img]http://img855.imageshack.us/img855/7553/screenshot2011041706h01.png[/img]

[img]http://img17.imageshack.us/img17/3583/screenshot2011041706h02.png[/img]

[img]http://img863.imageshack.us/img863/7553/screenshot2011041706h01.png[/img]

[img]http://img135.imageshack.us/img135/3583/screenshot2011041706h02.png[/img]



[quote]
#  XVID 1.3.1  - Latest version used to optimize and deliver the Max Quality.
# All standalone DVD Players compatible. [HD]
# Also : PS3
               XBOX 360
               Popcorn Hour
               Divx standalone player
               WD TV HD media player


# MXMG ----- Single File\Extreme Quality\Limited Size\Fast Downloads
# It takes a longer time to encode to gain Max Quality and you know that you never get dissappointed 
    getting the MXMG Release.
[/quote]


[code]
Seedboxes provided by   http://www.chociz.com/
A seedbox is a private dedicated server used for the uploading and downloading of digital files.
Speed - You can sit back, relax and watch in amazement at how fast the torrents finish. 
Secure and Safe - With a seedbox, you don’t even need to use a BitTorrent client on your home computer!
Use Private Trackers -  You can register @ Private Trackers and seed like Hell!

Get a Cheap Seedbox choosing for your taste - [url]http://www.chociz.com/whmcs/cart.php[/url]
[/code]



[quote]
Format                           : AVI
Format/Info                      : Audio Video Interleave
File size                        : 1.44 GiB
Duration                         : 1h 48mn
Overall bit rate                 : 1 891 Kbps
Writing application              : VirtualDubMod 1.5.10.3 | www.virtualdub-fr.org || (build 2550/release)
Writing library                  : VirtualDubMod build 2550/release

Video
ID                               : 0
Format                           : MPEG-4 Visual
Format profile                   : Advanced Simple@L5
Format settings, BVOP            : 1
Format settings, QPel            : No
Format settings, GMC             : No warppoints
Format settings, Matrix          : Default (H.263)
Codec ID                         : XVID
Codec ID/Hint                    : XviD
Duration                         : 1h 48mn
Bit rate                         : 1 498 Kbps
Width                            : 1 280 pixels
Height                           : 720 pixels
Display aspect ratio             : 16:9
Frame rate                       : 23.976 fps
Color space                      : YUV
Chroma subsampling               : 4:2:0
Bit depth                        : 8 bits
Scan type                        : Progressive
Compression mode                 : Lossy
Bits/(Pixel*Frame)               : 0.068
Stream size                      : 1.14 GiB (79%)
Writing library                  : XviD 63

Audio
ID                               : 1
Format                           : AC-3
Format/Info                      : Audio Coding 3
Mode extension                   : CM (complete main)
Codec ID                         : 2000
Duration                         : 1h 48mn
Bit rate mode                    : Constant
Bit rate                         : 384 Kbps
Channel(s)                       : 6 channels
Channel positions                : Front: L C R, Side: L R, LFE
Sampling rate                    : 48.0 KHz
Bit depth                        : 16 bits
Compression mode                 : Lossy
Stream size                      : 299 MiB (20%)
Alignment                        : Split accross interleaves
Interleave, duration             : 42 ms (1.00 video frame)
Interleave, preload duration     : 500 ms

[/quote]



